{"title":"Ruy Guerra - Os Fuzis (1964)","uid":5720227,"size":699531264,"categoryP":"other","categoryS":"other","magnet":"?xt=urn:btih:3b48d2f65659380e0e100f1801627515f27eb919&amp;dn=Ruy+Guerra+-+Os+Fuzis+%281964%29&amp;tr=udp%3A%2F%2Ftracker.openbittorrent.com%3A80&amp;tr=udp%3A%2F%2Fopen.demonii.com%3A1337&amp;tr=udp%3A%2F%2Ftracker.coppersurfer.tk%3A6969&amp;tr=udp%3A%2F%2Fexodus.desync.com%3A6969","seeders":9,"leechers":1,"uploader":"mfccorrea","files":1,"time":1280263991,"description":"Os fuzis (The Guns) is, arguably, Ruy Guerra's greatest political film. The action is set in Brazil's semi-arid, underdeveloped Northeastern backlands (the sertÃƒÂ£o ), and Guerra uses numerous devices, in addition to location shooting, to give his film the look of a documentary. The film's plot and sub-plot weave together the political problems of the oppression of the villagers by the military and by the forces of fanatic religious mysticism, but unlike many Latin American political films, Os fuzis not only avoids facile political solutions, but it also features complex characters and interpersonal relations.\n\n   General\n      Complete name : Os_Fuzis.avi\n      Format : AVI\n      Format/Info : Audio Video Interleave\n      File size : 667 MiB\n      Duration : 1h 23mn\n      Overall bit rate : 1 119 Kbps\n      Writing application : VirtualDubMod 1.5.4.1 (build 2178/release)\n      Writing library : VirtualDubMod build 2178/release\n   Video #0\n      ID : 0\n      Format : MPEG-4 Visual\n      Format profile : AdvancedSimple@L5\n      Format settings, BVOP : Yes\n      Format settings, QPel : No\n      Format settings, GMC : No warppoints\n      Format settings, Matrix : Default (H.263)\n      Muxing mode : Packed bitstream\n      Codec ID : XVID\n      Codec ID/Hint : XviD\n      Duration : 1h 23mn\n      Bit rate : 979 Kbps\n      Width : 640 pixels\n      Height : 480 pixels\n      Display aspect ratio : 4:3\n      Frame rate : 29.970 fps\n      Resolution : 24 bits\n      Colorimetry : 4:2:0\n      Scan type : Progressive\n      Bits/(Pixel*Frame) : 0.106\n      Stream size : 584 MiB (88%)\n      Writing library : XviD 1.2.1 (UTC 2008-12-04)\n   Audio #1\n      ID : 1\n      Format : MPEG Audio\n      Format version : Version 1\n      Format profile : Layer 3\n      Codec ID : 55\n      Codec ID/Hint : MP3\n      Duration : 1h 23mn\n      Bit rate mode : Constant\n      Bit rate : 128 Kbps\n      Channel(s) : 2 channels\n      Sampling rate : 48.0 KHz\n      Resolution : 16 bits\n      Stream size : 76.3 MiB (11%)\n      Alignment : Aligned on interleaves\n      Interleave, duration : 33 ms (1.00 video frame)\n      Interleave, preload duration : 504 ms\n      Writing library : LAME3.98.2\n &lt;a href=&quot;\nhttp://www.imdb.com/title/tt0058122/&quot; rel=&quot;nofollow&quot; target=&quot;_NEW&quot;&gt;\nhttp://www.imdb.com/title/tt0058122/&lt;/a&gt;\n\nReasonable quality TV Rip. Portuguese audio, no subtitles.\n\nPosted originally at KG by Gianni777, whom we thank","torrent":{"xt":"urn:btih:3b48d2f65659380e0e100f1801627515f27eb919","amp;dn":"Ruy+Guerra+-+Os+Fuzis+%281964%29","amp;tr":["udp%3A%2F%2Ftracker.openbittorrent.com%3A80","udp%3A%2F%2Fopen.demonii.com%3A1337","udp%3A%2F%2Ftracker.coppersurfer.tk%3A6969","udp%3A%2F%2Fexodus.desync.com%3A6969"],"infoHash":"3b48d2f65659380e0e100f1801627515f27eb919","infoHashBuffer":{"type":"Buffer","data":[59,72,210,246,86,89,56,14,14,16,15,24,1,98,117,21,242,126,185,25]},"announce":[],"urlList":[]}}